<?xml version="1.0" encoding="UTF-8"?>
<svg id="Layer_2" data-name="Layer 2" xmlns="http://www.w3.org/2000/svg" xmlns:xlink="http://www.w3.org/1999/xlink" viewBox="0 0 26.05 77.36">
  <defs>
    <linearGradient id="linear-gradient" x1="3.41" y1="37.73" x2="30.71" y2="39.64" gradientUnits="userSpaceOnUse">
      <stop offset=".04" stop-color="#fff"/>
      <stop offset=".15" stop-color="rgba(226, 226, 226, .87)" stop-opacity=".87"/>
      <stop offset=".39" stop-color="rgba(155, 153, 153, .55)" stop-opacity=".55"/>
      <stop offset=".75" stop-color="rgba(41, 37, 38, .03)" stop-opacity=".03"/>
      <stop offset=".77" stop-color="#231f20" stop-opacity="0"/>
    </linearGradient>
  </defs>
  <g id="Kop2">
    <g>
      <path d="M23.36,77.36,17.25,36.2l-7.95-8.18-3.83-17.5,2.25-2.17,5.08-1.33-3.42-2.75-.33-2.75,2.83.92,2.01.71,2.18,1.46-.86-2.42.76-1.81,2.29,1.33,1.86,1.88,1.38,1.9,4.32,4.48-2.72,67.11-6.57-12.89.71-28Z" style="fill: url(#linear-gradient); stroke-width: 0px;"/>
      <path d="M5.59,12.33c2.39,2.43,5.36,2.59,8.67,2.5,3.41-.1,1.35,2.16-.34,3.91-.99,1.03-1.91,2.16-2.4,3.52-.31.86-.18,2.37-.77,3.08-.43.51-1.03.62-1.68.49-.67-.13-1.98.66-2.07-.97-.09-1.63-1.62-1.27-2.05-1.7-2.46-2.46-4.63-5.34-3.74-6.85-2.52-1.41,2.06-4.59,4.8-3.46" style="fill: #d6cab9; stroke-width: 0px;"/>
      <path d="M1.88,19.62c.17,2.01,1.22,4.67,4.65,4.22.27,5.4,2.75,5.29,5.22,7.21,3.03,2.35,3.95,4.94,4.67,8.32,1.52,7.09-4.38,20.6,1.56,31.11,2.52,4.45,4.27,5.51,5.37,6.89-4.86-9.32-5.36-22.05-5.63-26.37-.62-9.99,1.95-14.87-2.75-21.42-2.6-3.63-5.17-2.53-6.97-4.98-.4-.55-.7-1.01-1.01-1.6-2.21-.11-3.45-.85-3.61-2.97" style="fill: #ad886d; stroke-width: 0px;"/>
      <path d="M17.12,7.71c-.22.95,1.68,2.44,2.95,3.52,2.25-3.78-1.77-6.48-3.91-9.28.89,2.6,1.54,2.31,2.27,3.78.76,1.53-.14.86-.66.05-.8,1.38-.65,1.93-.65,1.93h0Z" style="fill: #ad886d; stroke-width: 0px;"/>
      <path d="M9.99,3.4c-.28,0-.82.85,1.55,3.56-4.02.62-8.25,2.54-6.04,5.64-2.63-.9-6.5,1.53-4.73,3.73-1.6.57-.35,2.59.69,3.09,1.37.65,1.67.81,2.67.41.19-.03,1.43-.68,1.39-1.61,0-.18-.31-.18-.39-.4-.12.28-.47,1.13-1.83,1.19-.83.03-1.46-.4-1.97-1.55.06-1.58,1.74-.78,2.74-2.05-.8.33-1.86-.44-2.05-.85-.19-.41-.49.05-.69-.03-.04.3-.28,1.11-.29,1.35-1.18-1.65,3.36-4.23,5.17-2.76-.25-2.01.77-4.1,2.59-4.67,3.95-1.22,6.6.91,7.38-.19-.22-.53-.22-.9,0-1.31,1.45-3.02-3.46-2.47-6.07-3.47" style="fill: #ad886d; stroke-width: 0px;"/>
      <path d="M11.66,6.53c-.65-.73-3.25-3.36-2.06-4.57,1.61,1.65,5.52,0,6.72,4.59.2-.35.26-.57.51-.94-.69-1.41-1.11-2.42-.77-4.79,1.34.09,3.57,2.34,5.46,4.69-1.46-2.69-3.44-5.38-6.26-5.51-.55,1.96-.26,3.74.9,5.1-1.88-3.25-5.01-2.82-7.24-4.17-.25,2.53.13,4.42,2.37,5.66" style="fill: #ad886d; stroke-width: 0px;"/>
      <path d="M11.49,22.19c.39-3.73,4.65-4.7,4.25-7.06-1.82,2.31-3.96.79-6.31-.25-2.51-1.11-3.89-1.72-3.51-2.82,6.14,5.01,6.14.63,8.7,2.07,3.16,1.78,4.45,2.12,1.04,4.04-1.34.76-2.79,1.54-4.14,4.06" style="fill: #ad886d; stroke-width: 0px;"/>
      <path d="M26.05,10.36c-.54-2.78-3.68-4.51-4.23-4.76l-.32-.13h0c.52.65.86,1.08.89,2.4,1.26.5,2.5,1.32,3.66,2.49" style="fill: #ad886d; stroke-width: 0px;"/>
    </g>
  </g>
</svg>